<svg xmlns="http://www.w3.org/2000/svg" width="787.184" height="131.397" fill="none" aria-label="Codixa" viewBox="0 0 787.184 131.397"><title>Codixa</title><path fill="#ff4e0d" d="M42.954 0h114.627l-12.794 28.996H47.12c-.751 0-1.085 1.046-1.692 1.489-.322.235-.942.327-1.32.466-6.312 2.305-10.713 7.097-12.328 13.637-.301 1.219-.847 2.492-.847 3.757v42.981c0 .673.773 1.106 1.091 1.699.36.672.487 1.595.793 2.314 2.935 6.893 9.582 10.485 16.664 11.784 1.123.206 2.749 1.097 3.763 1.097h87.627l10.44 23.107H36.276c-.637 0-.815-1.033-1.385-1.318-.523-.262-1.178-.072-1.737-.242l-7.36-2.244c-.807-.246-1.728-.815-2.559-1.156-8.74-3.591-15.729-11.037-19.472-19.625-.93-2.133-1.96-4.678-2.323-6.975L0 90.648V37.65c0-.662.704-1.128.964-1.737.405-.947.387-2.389.676-3.424 1.503-5.392 3.251-11.587 7.163-15.818l4.513-4.883c3.31-3.58 8.072-6.349 12.623-7.982.85-.306 1.785-.799 2.625-.998l6.464-1.536C36.509.921 38.05 1.03 39.543.77 40.648.578 41.85 0 42.954 0m152.291 32.371h66.622c.638 0 1.144.57 1.742.791.916.339 2.107.486 3.075.674 10.42 2.018 19.59 7.561 24.755 17.045 1.123 2.064 2.351 4.465 2.816 6.78l1.708 8.504v32.613c0 .621-.532 1.124-.744 1.707-.497 1.363-.59 3.013-.987 4.432-.825 2.946-1.804 5.743-3.338 8.424-3.648 6.376-9.483 11.008-16.151 13.905-1.985.863-4.125 1.844-6.258 2.249l-6.178 1.174c-.319.06-.358.693-.683.693h-66.831l-.348-.208-7.343-.26c-1.067-.038-2.309-.649-3.41-.821-.578-.089-1.181-.073-1.736-.256l-6.978-2.292c-2.886-.949-5.754-2.935-8.108-4.803-1.469-1.165-2.95-2.273-4.214-3.673-4.066-4.505-6.763-10.659-7.8-16.59-.226-1.294-.99-2.847-.99-4.115V65.019l1.318-6.451c2.019-9.876 8.758-17.824 17.859-21.885 1.485-.662 3.289-1.728 4.855-2.046l7.547-1.534zm116.115.039h100.706c.71 0 1.087.925 1.699 1.284.702.412 2.853.396 3.451.553l6.423 1.684c2.191.575 4.592 2.249 6.471 3.494 7.159 4.745 12.997 12.45 14.384 21.116l1.455 9.095v27.51l-.48.324-.887 6.217c-.194 1.36-1.058 2.978-1.528 4.309-2.836 8.036-8.415 14.279-16.096 18-1.215.589-2.548 1.364-3.825 1.747l-7.036 2.112c-1.182.355-2.63.146-3.796.644-.587.252-1.076.857-1.714.857h-99.293V65.794h27.678v44.082h65.708c.696 0 1.118-.834 1.719-1.185.268-.158.699-.229.996-.331 4.944-1.693 8.654-5.054 10.249-10.146.313-1 .348-2.076.481-3.109.095-.741.444-1.836.444-2.424V76.154l-.679-8.639c-.068-.854-.878-2.384-1.275-3.279-2.545-5.731-7.707-8.534-13.65-9.572-.97-.169-2.193-.59-3.113-.59H311.36zm150.381-.068h26.404v99.042h-26.404zm37.731.01h36.285l34.787 32.022c.415.383 3.321-3.2 3.739-3.582l31.111-28.408h36.178l-54.008 49.304 52.751 47.763 58.234-97.074h29.555l59.08 99.02h-31.193l-43.577-73.902-19.802 35.459h27.622l9.544 17.03h-47.159l-12.428 21.388h-62.043l-37.674-34.839c-.268-.248-3.153 2.898-3.574 3.283l-34.488 31.577h-35.334l55.231-50.441zM181.949 68.566v28.669c0 .862.823 1.528 1.074 2.353 2.422 7.975 11.51 10.261 18.91 10.261h50.007c.641 0 1.138-.604 1.743-.819.498-.177 1.21-.077 1.741-.166 1.412-.235 3.024-.803 4.313-1.423 4.839-2.329 7.449-6.523 8.492-11.654.171-.843.606-1.996.606-2.755V72.038c0-1.068-.395-2.375-.592-3.464-.612-3.383-1.576-6.963-4.049-9.517-2.202-2.274-5.313-3.486-8.292-4.301-1.06-.29-2.794-1.038-3.771-1.038h-55.286c-.82 0-2.458.782-3.398 1.051-5.408 1.546-9.173 4.904-10.688 10.393-.303 1.098-.81 2.258-.81 3.404"/></svg>